<svg xmlns="http://www.w3.org/2000/svg" width="52" height="23" viewBox="0 0 52 23" fill="none"><path d="M3.59758 13.558H8.65758V16H0.517578V0.644043H3.59758V13.558Z" fill="#1C2448"></path><path d="M16.0272 16.198C14.8539 16.198 13.7979 15.9414 12.8592 15.428C11.9206 14.9 11.1799 14.1594 10.6372 13.206C10.1092 12.2527 9.84523 11.1527 9.84523 9.90604C9.84523 8.65938 10.1166 7.55938 10.6592 6.60604C11.2166 5.65271 11.9719 4.91938 12.9252 4.40604C13.8786 3.87804 14.9419 3.61404 16.1152 3.61404C17.2886 3.61404 18.3519 3.87804 19.3052 4.40604C20.2586 4.91938 21.0066 5.65271 21.5492 6.60604C22.1066 7.55938 22.3852 8.65938 22.3852 9.90604C22.3852 11.1527 22.0992 12.2527 21.5272 13.206C20.9699 14.1594 20.2072 14.9 19.2392 15.428C18.2859 15.9414 17.2152 16.198 16.0272 16.198ZM16.0272 13.514C16.5846 13.514 17.1052 13.382 17.5892 13.118C18.0879 12.8394 18.4839 12.4287 18.7772 11.886C19.0706 11.3434 19.2172 10.6834 19.2172 9.90604C19.2172 8.74738 18.9092 7.86004 18.2932 7.24404C17.6919 6.61338 16.9512 6.29804 16.0712 6.29804C15.1912 6.29804 14.4506 6.61338 13.8492 7.24404C13.2626 7.86004 12.9692 8.74738 12.9692 9.90604C12.9692 11.0647 13.2552 11.9594 13.8272 12.59C14.4139 13.206 15.1472 13.514 16.0272 13.514Z" fill="#1C2448"></path><path d="M29.4185 3.61404C30.3279 3.61404 31.1272 3.79738 31.8165 4.16404C32.5059 4.51604 33.0485 4.97804 33.4445 5.55004V3.81204H36.5465V16.088C36.5465 17.2174 36.3192 18.222 35.8645 19.102C35.4099 19.9967 34.7279 20.7007 33.8185 21.214C32.9092 21.742 31.8092 22.006 30.5185 22.006C28.7879 22.006 27.3652 21.6027 26.2505 20.796C25.1505 19.9894 24.5272 18.8894 24.3805 17.496H27.4385C27.5999 18.0534 27.9445 18.4934 28.4725 18.816C29.0152 19.1534 29.6679 19.322 30.4305 19.322C31.3252 19.322 32.0512 19.0507 32.6085 18.508C33.1659 17.98 33.4445 17.1734 33.4445 16.088V14.196C33.0485 14.768 32.4985 15.2447 31.7945 15.626C31.1052 16.0074 30.3132 16.198 29.4185 16.198C28.3919 16.198 27.4532 15.934 26.6025 15.406C25.7519 14.878 25.0772 14.1374 24.5785 13.184C24.0945 12.216 23.8525 11.1087 23.8525 9.86204C23.8525 8.63004 24.0945 7.53738 24.5785 6.58404C25.0772 5.63071 25.7445 4.89738 26.5805 4.38404C27.4312 3.87071 28.3772 3.61404 29.4185 3.61404ZM33.4445 9.90604C33.4445 9.15804 33.2979 8.52004 33.0045 7.99204C32.7112 7.44938 32.3152 7.03871 31.8165 6.76004C31.3179 6.46671 30.7825 6.32004 30.2105 6.32004C29.6385 6.32004 29.1105 6.45938 28.6265 6.73804C28.1425 7.01671 27.7465 7.42738 27.4385 7.97004C27.1452 8.49804 26.9985 9.12871 26.9985 9.86204C26.9985 10.5954 27.1452 11.2407 27.4385 11.798C27.7465 12.3407 28.1425 12.7587 28.6265 13.052C29.1252 13.3454 29.6532 13.492 30.2105 13.492C30.7825 13.492 31.3179 13.3527 31.8165 13.074C32.3152 12.7807 32.7112 12.37 33.0045 11.842C33.2979 11.2994 33.4445 10.654 33.4445 9.90604Z" fill="#1C2448"></path><path d="M44.9667 16.198C43.7934 16.198 42.7374 15.9414 41.7987 15.428C40.86 14.9 40.1194 14.1594 39.5767 13.206C39.0487 12.2527 38.7847 11.1527 38.7847 9.90604C38.7847 8.65938 39.056 7.55938 39.5987 6.60604C40.156 5.65271 40.9114 4.91938 41.8647 4.40604C42.818 3.87804 43.8814 3.61404 45.0547 3.61404C46.228 3.61404 47.2914 3.87804 48.2447 4.40604C49.198 4.91938 49.946 5.65271 50.4887 6.60604C51.046 7.55938 51.3247 8.65938 51.3247 9.90604C51.3247 11.1527 51.0387 12.2527 50.4667 13.206C49.9094 14.1594 49.1467 14.9 48.1787 15.428C47.2254 15.9414 46.1547 16.198 44.9667 16.198ZM44.9667 13.514C45.524 13.514 46.0447 13.382 46.5287 13.118C47.0274 12.8394 47.4234 12.4287 47.7167 11.886C48.01 11.3434 48.1567 10.6834 48.1567 9.90604C48.1567 8.74738 47.8487 7.86004 47.2327 7.24404C46.6314 6.61338 45.8907 6.29804 45.0107 6.29804C44.1307 6.29804 43.39 6.61338 42.7887 7.24404C42.202 7.86004 41.9087 8.74738 41.9087 9.90604C41.9087 11.0647 42.1947 11.9594 42.7667 12.59C43.3534 13.206 44.0867 13.514 44.9667 13.514Z" fill="#1C2448"></path></svg>