<svg width="154" height="133" viewBox="0 0 154 133" fill="none" xmlns="http://www.w3.org/2000/svg">
<g clip-path="url(#clip0_6377_36421)">
<rect width="154" height="133" fill="white"/>
<path opacity="0.06" fill-rule="evenodd" clip-rule="evenodd" d="M128.394 132.857C144.112 118.915 154 98.6745 154 76.1504C154 34.0937 119.526 -8.10105e-06 77 -8.10105e-06C34.474 -8.10105e-06 -2.93605e-05 34.0937 -2.93605e-05 76.1504C-2.93605e-05 98.4242 9.66962 118.464 25.0839 132.389C49.6458 132.362 105.782 133.363 128.394 132.857Z" fill="#C5001A"/>
<path d="M148.601 38.5246C147.748 38.5246 146.948 38.7682 146.281 39.1963C145.615 35.6734 142.488 33 138.728 33C134.961 33 131.821 35.68 131.167 39.216C130.374 38.7748 129.46 38.5246 128.48 38.5246C125.453 38.5246 123 40.9478 123 43.9373C123 44.5167 123.093 45.0764 123.267 45.6032H151.842C152.515 44.8526 152.922 43.8649 152.922 42.785C152.915 40.4342 150.988 38.5246 148.601 38.5246Z" fill="#FEFEFE" stroke="#C5001A" stroke-width="0.913762" stroke-linecap="round" stroke-linejoin="round"/>
<path d="M20.6791 47.3835C20.0232 47.3835 19.4082 47.5768 18.8957 47.9164C18.3832 45.1212 15.9797 43 13.0893 43C10.1939 43 7.78008 45.1264 7.27785 47.9321C6.668 47.582 5.96591 47.3835 5.21257 47.3835C2.88592 47.3835 1 49.3062 1 51.6782C1 52.1379 1.07175 52.582 1.20499 53H23.1698C23.6874 52.4044 24 51.6207 24 50.7638C23.9949 48.8986 22.5138 47.3835 20.6791 47.3835Z" fill="#FEFEFE" stroke="#C5001A" stroke-width="0.913762" stroke-linecap="round" stroke-linejoin="round"/>
<path d="M73.7222 112.115L73.8697 31.8841" stroke="black" stroke-width="0.99328"/>
<line x1="113.545" y1="72.2689" x2="32.7587" y2="72.5414" stroke="black" stroke-width="0.99328"/>
<line x1="107.356" y1="92.7137" x2="38.505" y2="51.7644" stroke="black" stroke-width="0.99328"/>
<path d="M93.4468 106.463L52.3961 37.4503" stroke="black" stroke-width="0.99328"/>
<line x1="54.9706" y1="107.599" x2="91.6054" y2="36.4818" stroke="black" stroke-width="0.99328"/>
<line x1="39.5672" y1="93.5868" x2="106.597" y2="50.0022" stroke="black" stroke-width="0.99328"/>
<circle cx="73.1501" cy="71.9084" r="39.8898" stroke="black" stroke-width="0.99328"/>
<circle cx="73.1507" cy="71.9085" r="33.2205" stroke="black" stroke-width="0.99328"/>
<path d="M77.5957 38.3766L73.8839 31.522L70.1853 38.3766L64.3182 33.1893L60.9224 40.5997L52.4005 37.5511V45.4164L45.4282 43.733L47.2066 50.6036L38.6847 51.5299L42.2046 58.755L34.8314 61.7015L39.7963 67.8327L33.127 72.2789L39.9881 77.8367L35.2921 83.8165L42.3965 85.9881L39.611 93.9542L48.1329 94.3247L46.8104 101.324L53.8759 99.5119L55.7351 107.849L63.8865 104.329L66.2883 111.368L70.1787 105.44L73.072 111.46L77.9596 105.255L85.051 109.617L86.4815 102.847L93.336 106.367L93.7132 98.5857L101.177 99.9421L99.4562 93.0279L107.601 92.4721L104.643 83.5797L111.773 81.5129L106.681 76.3546L113.159 71.9084L106.304 66.5359L111.313 60.78L103.902 58.1992L106.86 50.2331L98.338 49.6773L99.3337 42.3508L92.2311 44.1196L91.8606 36.524L84.265 40.0439L83.2081 33.5969L77.5957 38.3766Z" stroke="black" stroke-width="0.8192"/>
<path d="M88.44 129.925L88.2989 129.317L75.6438 74.7011C75.6438 74.701 75.6437 74.7008 75.6437 74.7007L75.6436 74.7003L75.1598 74.8124C75.0907 74.512 73.859 74.0691 73.5647 74.1387L88.44 129.925ZM88.44 129.925H87.8151C87.8156 129.925 87.8155 129.925 87.8149 129.925C87.8128 129.925 87.8043 129.926 87.7869 129.927C87.7662 129.928 87.7394 129.931 87.7061 129.934C87.6453 129.939 87.5711 129.947 87.4842 129.956L87.4567 129.959C87.2624 129.979 87.0177 130.004 86.7774 130.021C86.5418 130.037 86.288 130.047 86.0807 130.033C85.9808 130.026 85.8597 130.011 85.7479 129.974C85.674 129.949 85.3999 129.848 85.3286 129.541L85.3286 129.541L72.6736 74.9246L88.44 129.925Z" fill="#FFB2BC" stroke="black" stroke-width="0.99328"/>
<path d="M61.3899 129.454C61.8282 129.408 62.215 129.094 62.3239 128.637C62.3239 128.637 62.3239 128.637 62.324 128.637L75.0928 75.1059L75.0929 75.1059C75.2313 74.5253 74.8667 73.9508 74.2908 73.8167L74.2888 73.8162C74.1283 73.7796 73.7214 73.6914 73.3369 73.6533C73.1496 73.6347 72.934 73.6243 72.7455 73.6506C72.6527 73.6635 72.5315 73.6897 72.4162 73.7525C72.2935 73.8193 72.1451 73.948 72.0936 74.1636L72.0933 74.1647L59.3248 128.134C59.3247 128.134 59.3247 128.134 59.3246 128.134L59.3245 128.135L59.8078 128.249L61.3899 129.454ZM61.3899 129.454C61.3887 129.454 61.3875 129.455 61.3864 129.455C61.3709 129.458 61.3577 129.46 61.348 129.461C61.3291 129.463 61.3137 129.464 61.3045 129.464C61.2859 129.465 61.2709 129.464 61.263 129.464C61.2461 129.463 61.2314 129.462 61.2209 129.461C61.2103 129.46 61.1959 129.458 61.1796 129.455C61.1719 129.453 61.1579 129.451 61.1411 129.446C61.1326 129.444 61.1191 129.44 61.1029 129.435C61.0977 129.433 61.0915 129.431 61.0845 129.428L61.3899 129.454ZM61.1671 129.448L61.2768 128.964L61.1641 129.447C61.1656 129.448 61.1666 129.448 61.1671 129.448Z" fill="#FFB2BC" stroke="black" stroke-width="0.99328"/>
<circle cx="35.1318" cy="49.5612" r="3.93421" fill="#FEFEFE" stroke="black" stroke-width="1.024"/>
<path d="M30.6855 49.5612C30.6855 50.7404 31.154 51.8713 31.9878 52.7051C32.8216 53.539 33.9525 54.0074 35.1318 54.0074C36.311 54.0074 37.4419 53.539 38.2757 52.7051C39.1095 51.8713 39.578 50.7404 39.578 49.5612L35.1318 49.5612L30.6855 49.5612Z" fill="#FFB2BC"/>
<path d="M39.0813 49.5612C39.0813 50.6087 38.6652 51.6133 37.9245 52.354C37.1838 53.0947 36.1792 53.5108 35.1318 53.5108C34.0843 53.5108 33.0797 53.0947 32.339 52.354C31.5983 51.6133 31.1822 50.6087 31.1822 49.5612" stroke="black" stroke-width="0.99328"/>
<circle cx="73.7002" cy="72.0935" r="2.65276" fill="#FEFEFE" stroke="black" stroke-width="0.99328"/>
<circle cx="50.5419" cy="33.745" r="3.93421" fill="#FEFEFE" stroke="black" stroke-width="1.024"/>
<path d="M46.0957 33.745C46.0957 34.9242 46.5641 36.0552 47.398 36.889C48.2318 37.7228 49.3627 38.1912 50.5419 38.1912C51.7211 38.1913 52.852 37.7228 53.6859 36.889C54.5197 36.0552 54.9881 34.9242 54.9881 33.745L50.5419 33.745L46.0957 33.745Z" fill="#FFB2BC"/>
<path d="M54.4915 33.745C54.4915 34.7925 54.0754 35.7971 53.3347 36.5378C52.594 37.2785 51.5894 37.6946 50.5419 37.6946C49.4944 37.6946 48.4898 37.2785 47.7491 36.5378C47.0085 35.7971 46.5923 34.7925 46.5923 33.745" stroke="black" stroke-width="0.99328"/>
<circle cx="73.8329" cy="27.4462" r="3.93421" fill="#FEFEFE" stroke="black" stroke-width="1.024"/>
<path d="M69.3867 27.4462C69.3867 28.6254 69.8552 29.7563 70.689 30.5902C71.5228 31.424 72.6537 31.8924 73.8329 31.8924C75.0121 31.8924 76.143 31.424 76.9769 30.5902C77.8107 29.7563 78.2791 28.6254 78.2791 27.4462L73.8329 27.4462L69.3867 27.4462Z" fill="#FFB2BC"/>
<path d="M77.7825 27.4462C77.7825 28.4937 77.3664 29.4983 76.6257 30.239C75.885 30.9797 74.8804 31.3958 73.8329 31.3958C72.7854 31.3958 71.7808 30.9797 71.0402 30.239C70.2995 29.4983 69.8834 28.4937 69.8834 27.4462" stroke="black" stroke-width="0.99328"/>
<circle cx="93.1513" cy="32.2629" r="3.93421" fill="#FEFEFE" stroke="black" stroke-width="1.024"/>
<path d="M88.7051 32.2629C88.7051 33.4421 89.1735 34.573 90.0073 35.4068C90.8412 36.2406 91.9721 36.7091 93.1513 36.7091C94.3305 36.7091 95.4614 36.2406 96.2952 35.4068C97.1291 34.573 97.5975 33.4421 97.5975 32.2629L93.1513 32.2629L88.7051 32.2629Z" fill="#FFB2BC"/>
<path d="M97.1009 32.2629C97.1009 33.3104 96.6847 34.3149 95.9441 35.0556C95.2034 35.7963 94.1988 36.2124 93.1513 36.2124C92.1038 36.2124 91.0992 35.7963 90.3585 35.0556C89.6178 34.3149 89.2017 33.3104 89.2017 32.2629" stroke="black" stroke-width="0.99328"/>
<circle cx="110.196" cy="47.454" r="3.93421" fill="#FEFEFE" stroke="black" stroke-width="1.024"/>
<path d="M105.75 47.454C105.75 48.6332 106.218 49.7641 107.052 50.598C107.886 51.4318 109.017 51.9002 110.196 51.9002C111.375 51.9002 112.506 51.4318 113.34 50.598C114.174 49.7641 114.642 48.6332 114.642 47.454L110.196 47.454L105.75 47.454Z" fill="#FFB2BC"/>
<path d="M114.146 47.454C114.146 48.5015 113.73 49.5061 112.989 50.2468C112.248 50.9875 111.244 51.4036 110.196 51.4036C109.149 51.4036 108.144 50.9875 107.403 50.2468C106.663 49.5061 106.247 48.5015 106.247 47.454" stroke="black" stroke-width="0.99328"/>
<circle cx="112.048" cy="94.1393" r="3.93421" fill="#FEFEFE" stroke="black" stroke-width="1.024"/>
<path d="M107.602 94.1393C107.602 95.3185 108.07 96.4494 108.904 97.2833C109.738 98.1171 110.869 98.5855 112.048 98.5855C113.227 98.5855 114.358 98.1171 115.192 97.2833C116.026 96.4494 116.494 95.3185 116.494 94.1393L112.048 94.1393L107.602 94.1393Z" fill="#FFB2BC"/>
<path d="M115.997 94.1393C115.997 95.1868 115.581 96.1914 114.841 96.9321C114.1 97.6728 113.095 98.0889 112.048 98.0889C111 98.0889 109.996 97.6728 109.255 96.9321C108.514 96.1914 108.098 95.1868 108.098 94.1393" stroke="black" stroke-width="0.99328"/>
<circle cx="95.3739" cy="110.072" r="3.93421" fill="#FEFEFE" stroke="black" stroke-width="1.024"/>
<path d="M90.9277 110.072C90.9277 111.251 91.3962 112.382 92.23 113.216C93.0638 114.049 94.1947 114.518 95.3739 114.518C96.5532 114.518 97.6841 114.049 98.5179 113.216C99.3517 112.382 99.8202 111.251 99.8202 110.072L95.3739 110.072L90.9277 110.072Z" fill="#FFB2BC"/>
<path d="M99.3235 110.072C99.3235 111.119 98.9074 112.124 98.1667 112.864C97.426 113.605 96.4214 114.021 95.3739 114.021C94.3265 114.021 93.3219 113.605 92.5812 112.864C91.8405 112.124 91.4244 111.119 91.4244 110.072" stroke="black" stroke-width="0.99328"/>
<circle cx="73.8329" cy="115.906" r="3.93421" fill="#FEFEFE" stroke="black" stroke-width="1.024"/>
<path d="M69.3867 115.906C69.3867 117.086 69.8552 118.217 70.689 119.05C71.5228 119.884 72.6537 120.353 73.8329 120.353C75.0121 120.353 76.143 119.884 76.9769 119.05C77.8107 118.217 78.2791 117.086 78.2791 115.906L73.8329 115.906L69.3867 115.906Z" fill="#FFB2BC"/>
<path d="M77.7825 115.906C77.7825 116.954 77.3664 117.958 76.6257 118.699C75.885 119.44 74.8804 119.856 73.8329 119.856C72.7854 119.856 71.7808 119.44 71.0402 118.699C70.2995 117.958 69.8834 116.954 69.8834 115.906" stroke="black" stroke-width="0.99328"/>
<circle cx="54.247" cy="111.924" r="3.93421" fill="#FEFEFE" stroke="black" stroke-width="1.024"/>
<path d="M49.8008 111.924C49.8008 113.103 50.2692 114.234 51.103 115.068C51.9369 115.902 53.0678 116.37 54.247 116.37C55.4262 116.37 56.5571 115.902 57.3909 115.068C58.2248 114.234 58.6932 113.103 58.6932 111.924L54.247 111.924L49.8008 111.924Z" fill="#FFB2BC"/>
<path d="M58.1966 111.924C58.1966 112.972 57.7804 113.976 57.0398 114.717C56.2991 115.458 55.2945 115.874 54.247 115.874C53.1995 115.874 52.1949 115.458 51.4542 114.717C50.7135 113.976 50.2974 112.972 50.2974 111.924" stroke="black" stroke-width="0.99328"/>
<circle cx="36.0927" cy="96.3625" r="3.93421" fill="#FEFEFE" stroke="black" stroke-width="1.024"/>
<path d="M31.6465 96.3625C31.6465 97.5417 32.1149 98.6726 32.9487 99.5064C33.7826 100.34 34.9135 100.809 36.0927 100.809C37.2719 100.809 38.4028 100.34 39.2366 99.5064C40.0705 98.6726 40.5389 97.5417 40.5389 96.3625L36.0927 96.3625L31.6465 96.3625Z" fill="#FFB2BC"/>
<path d="M40.0423 96.3625C40.0423 97.41 39.6262 98.4146 38.8855 99.1552C38.1448 99.8959 37.1402 100.312 36.0927 100.312C35.0452 100.312 34.0406 99.8959 33.2999 99.1552C32.5592 98.4146 32.1431 97.41 32.1431 96.3625" stroke="black" stroke-width="0.99328"/>
<circle cx="117.606" cy="71.9084" r="3.93421" fill="#FEFEFE" stroke="black" stroke-width="1.024"/>
<path d="M113.16 71.9084C113.16 73.0876 113.629 74.2185 114.462 75.0523C115.296 75.8861 116.427 76.3546 117.606 76.3546C118.786 76.3546 119.916 75.8861 120.75 75.0523C121.584 74.2185 122.053 73.0876 122.053 71.9084L117.606 71.9084L113.16 71.9084Z" fill="#FFB2BC"/>
<path d="M121.556 71.9084C121.556 72.9559 121.14 73.9605 120.399 74.7011C119.658 75.4418 118.654 75.8579 117.606 75.8579C116.559 75.8579 115.554 75.4418 114.814 74.7011C114.073 73.9604 113.657 72.9559 113.657 71.9084" stroke="black" stroke-width="0.99328"/>
<circle cx="28.6806" cy="71.9081" r="3.93421" fill="#FEFEFE" stroke="black" stroke-width="1.024"/>
<path d="M24.2344 71.9081C24.2344 73.0873 24.7028 74.2182 25.5366 75.0521C26.3705 75.8859 27.5014 76.3543 28.6806 76.3543C29.8598 76.3543 30.9907 75.8859 31.8245 75.0521C32.6584 74.2182 33.1268 73.0873 33.1268 71.9081L28.6806 71.9081L24.2344 71.9081Z" fill="#FFB2BC"/>
<path d="M32.6302 71.9081C32.6302 72.9556 32.214 73.9602 31.4734 74.7009C30.7327 75.4416 29.7281 75.8577 28.6806 75.8577C27.6331 75.8577 26.6285 75.4416 25.8878 74.7009C25.1471 73.9602 24.731 72.9556 24.731 71.9081" stroke="black" stroke-width="0.99328"/>
<rect x="36.6978" y="125.305" width="75.8067" height="7.19872" rx="1.55136" fill="#FFEDE8" stroke="black" stroke-width="0.99328"/>
</g>
<defs>
<clipPath id="clip0_6377_36421">
<rect width="154" height="133" fill="white"/>
</clipPath>
</defs>
</svg>
