<svg xmlns="http://www.w3.org/2000/svg" width="154" height="135" viewBox="0 0 154 135" fill="none"><path opacity="0.06" fill-rule="evenodd" clip-rule="evenodd" d="M128.394 134.854C144.112 120.703 154 100.158 154 77.2955C154 34.6064 119.526 0 77 0C34.4741 0 0 34.6064 0 77.2955C0 99.9043 9.66965 120.246 25.0839 134.38C49.6458 134.352 105.782 135.369 128.394 134.854Z" fill="#C5001A"></path><path d="M41.5479 44.4038C40.3296 44.4038 39.1875 44.7604 38.2357 45.3868C37.284 40.231 32.8202 36.3184 27.4522 36.3184C22.0747 36.3184 17.5919 40.2406 16.6592 45.4157C15.5265 44.77 14.2226 44.4038 12.8235 44.4038C8.5025 44.4038 5 47.9502 5 52.3254C5 53.1735 5.13325 53.9927 5.38071 54.7636H46.1735C47.1348 53.665 47.7153 52.2194 47.7153 50.639C47.7058 47.1986 44.9552 44.4038 41.5479 44.4038Z" fill="#FEFEFE" stroke="#D9001D" stroke-width="0.892346" stroke-linecap="round" stroke-linejoin="round"></path><path d="M143.504 29.2294C142.687 29.2294 141.921 29.4734 141.283 29.902C140.645 26.3743 137.652 23.6973 134.053 23.6973C130.448 23.6973 127.442 26.3809 126.817 29.9218C126.058 29.48 125.183 29.2294 124.245 29.2294C121.348 29.2294 119 31.6559 119 34.6495C119 35.2297 119.089 35.7902 119.255 36.3177H146.605C147.249 35.566 147.639 34.577 147.639 33.4956C147.632 31.1416 145.788 29.2294 143.504 29.2294Z" fill="#FEFEFE" stroke="#D9001D" stroke-width="0.892346" stroke-linecap="round" stroke-linejoin="round"></path><path d="M62.6974 30.401L62.2615 30.4295L62.2615 30.4297L62.2615 30.4302L62.2617 30.4327L62.2623 30.4426L62.2648 30.4817L62.2743 30.6334C62.2825 30.7657 62.2941 30.958 62.3079 31.1979C62.3354 31.6778 62.3716 32.3475 62.4061 33.1071C62.4751 34.6291 62.5369 36.5014 62.5099 37.9288L62.5099 37.9296C62.4844 39.4322 62.7761 40.6968 63.0744 41.5865C63.2237 42.0318 63.3751 42.3847 63.4904 42.6284C63.4949 42.6379 63.4993 42.6472 63.5037 42.6563C61.1374 44.4294 60.499 47.6026 60.7339 50.1839C60.8574 51.5409 61.2252 52.7953 61.7602 53.6676C62.0274 54.1032 62.3528 54.4705 62.7372 54.6939C62.9275 54.8046 63.1306 54.8785 63.3416 54.9079C63.0058 56.5385 63.322 57.6102 63.8262 58.2955C64.0553 58.607 64.3122 58.8229 64.5353 58.969C64.4939 59.0244 64.4507 59.0848 64.4065 59.1505C64.1185 59.5773 63.7837 60.2222 63.5661 61.1173C63.1298 62.9125 63.1762 65.6668 64.9344 69.6269C65.335 70.5292 65.6176 72.0223 65.7878 73.9931C65.9568 75.9504 66.0117 78.3334 65.9804 80.9856C65.9177 86.289 65.5109 92.6389 64.9954 98.7534C64.4801 104.866 63.8567 110.737 63.3621 115.08C63.1148 117.252 62.8998 119.041 62.7466 120.287C62.67 120.91 62.6088 121.397 62.5669 121.728C62.5459 121.894 62.5297 122.021 62.5187 122.106L62.5063 122.203L62.5032 122.227L62.5024 122.233L62.5022 122.235C62.5021 122.235 62.5021 122.235 62.9353 122.291L62.5021 122.235C62.4859 122.36 62.5242 122.485 62.6071 122.58C62.6901 122.674 62.8097 122.728 62.9353 122.728H89.2186C89.3374 122.728 89.4512 122.68 89.5335 122.594C89.6159 122.508 89.6598 122.393 89.6551 122.274L89.2186 122.291C89.6551 122.274 89.6551 122.274 89.6551 122.274L89.6551 122.272L89.6548 122.267L89.654 122.246L89.6508 122.163L89.638 121.837C89.6269 121.551 89.6107 121.132 89.5902 120.598C89.5492 119.529 89.4911 117.999 89.4227 116.154C89.286 112.465 89.1083 107.518 88.9443 102.485C88.7803 97.4513 88.63 92.3337 88.5481 88.3035C88.5072 86.2882 88.4833 84.5469 88.4834 83.2249C88.4834 82.6236 88.4885 82.1178 88.4985 81.7155C89.3818 82.5975 90.2193 83.0438 91.0144 83.029C92.0585 83.0095 92.7932 82.2113 93.2846 81.1975C94.2732 79.1582 94.5795 75.673 94.342 72.5916C94.1045 69.5118 92.8021 67.9841 91.5826 66.5536C91.5326 66.4949 91.4827 66.4364 91.433 66.3779C90.8065 65.6406 90.2275 64.928 89.7981 64.0135C89.3718 63.1055 89.084 61.9773 89.084 60.4125C89.084 57.0384 87.8175 55.022 86.3143 53.7482C85.5721 53.1192 84.7837 52.6806 84.092 52.3475C83.7851 52.1997 83.4938 52.0711 83.2361 51.9573C83.204 51.9432 83.1724 51.9292 83.1413 51.9155C82.8556 51.7891 82.6255 51.6852 82.4483 51.5879L82.4473 51.5874C81.8425 51.2575 81.6977 50.761 81.7009 50.3044C81.7025 50.0693 81.7452 49.8515 81.7892 49.6899C81.806 49.6283 81.8226 49.5763 81.8363 49.5363C82.2027 49.1943 82.2233 48.7178 82.1885 48.4137C82.1684 48.2376 82.1269 48.0819 82.0917 47.9722C82.0739 47.9166 82.057 47.8709 82.0442 47.8379C82.0389 47.8244 82.0343 47.813 82.0305 47.8039C81.7206 46.844 81.5857 45.8407 81.5295 45.0687C81.5013 44.6819 81.4931 44.3569 81.492 44.1296C81.4914 44.016 81.4926 43.9271 81.4939 43.8673C81.4942 43.852 81.4945 43.8387 81.4948 43.8273L81.7993 42.7319L85.5238 42.7767C85.7437 42.7794 85.9313 42.6181 85.9617 42.4003C85.9921 42.1826 85.8559 41.9761 85.6438 41.9183L81.8363 40.8822L86.1227 38.7856C86.3216 38.6883 86.4163 38.4576 86.343 38.2486C86.2698 38.0397 86.0518 37.9186 85.8357 37.9668L80.8609 39.0767L80.3757 38.5386L82.9155 33.9523C83.0197 33.7641 82.9715 33.5281 82.8018 33.3959C82.6321 33.2638 82.3914 33.2748 82.2345 33.4219L78.1297 37.2711L77.4192 37.1539L76.2148 31.4823C76.1699 31.2709 75.9772 31.1241 75.7615 31.1369C75.5458 31.1498 75.3719 31.3183 75.3524 31.5335L74.8203 37.393L74.378 37.5098L70.3886 34.02C70.2277 33.8793 69.9886 33.8756 69.8235 34.0114C69.6584 34.1472 69.6158 34.3825 69.7228 34.5676L72.2587 38.9512L72.0384 39.2084L68.7028 38.9399C68.5339 37.6209 68.1513 35.9306 67.288 34.3405C66.8876 33.5996 66.5951 32.5561 66.3737 31.367C66.1535 30.1848 66.0097 28.8944 65.8908 27.6772C65.8375 27.131 65.8922 26.6643 65.9764 26.2411C66.0139 26.0522 66.0567 25.8748 66.0995 25.6974C66.1053 25.6734 66.1111 25.6493 66.1169 25.6253C66.1643 25.4282 66.2116 25.2259 66.2422 25.028C66.3045 24.6254 66.3049 24.1981 66.0845 23.7655C65.8698 23.3438 65.4756 22.9768 64.8791 22.6175C64.6853 22.5007 64.4672 22.506 64.2854 22.6011C64.1352 22.6796 64.0295 22.8076 63.9576 22.9136C63.8091 23.1323 63.68 23.4468 63.5655 23.7888C63.3318 24.4866 63.1102 25.452 62.9196 26.4143C62.7281 27.3812 62.5644 28.3629 62.4487 29.1018C62.3908 29.4715 62.3448 29.7811 62.3133 29.9984C62.2976 30.107 62.2854 30.1927 62.2772 30.2512L62.2678 30.3184L62.2654 30.3358L62.2648 30.3403L62.2646 30.3415L62.2646 30.3418C62.2646 30.3419 62.2646 30.3419 62.6974 30.401ZM62.6974 30.401L62.2615 30.4295C62.2596 30.4003 62.2606 30.3709 62.2646 30.3419L62.6974 30.401ZM62.9467 37.937C62.8977 40.8216 64.0673 42.7949 64.0673 42.7949C59.4873 45.7834 61.04 54.2384 63.4416 54.48L62.9467 37.937Z" fill="white" stroke="#041630" stroke-width="0.873723" stroke-linecap="round" stroke-linejoin="round"></path><path d="M90.4258 79.168C90.4258 79.168 92.335 80.3074 92.7439 77.4395L90.4258 79.168Z" fill="#FEFEFE"></path><path d="M90.4258 79.168C90.4258 79.168 92.335 80.3074 92.7439 77.4395" stroke="#041630" stroke-width="0.873723" stroke-linecap="round" stroke-linejoin="round"></path><path d="M61.9236 15.6572C61.8452 15.5486 60.9283 13.7326 60.6844 12.9259C60.3675 11.877 60.6373 10.0191 61.4267 8.65912C61.8627 11.0252 62.6891 10.0452 62.6891 10.0452C62.6891 10.0452 63.526 7.55143 63.526 5.50884C63.526 3.46624 64.3017 9.62312 64.3017 9.62312C64.3017 9.62312 64.9152 10.8342 65.5418 8.65912C66.3025 9.25937 66.5977 11.6471 66.4675 12.4846C66.3445 13.2812 65.065 15.6572 64.7351 15.6572C64.7111 15.6572 62.0455 15.8236 61.9236 15.6572Z" fill="#FFF2EE" stroke="#D9001D" stroke-width="0.970803" stroke-linecap="round" stroke-linejoin="round"></path><path d="M64.5763 22.2973L65.3353 19.5752L67.2104 18.7617V16.0836C62.9483 14.7661 59.502 16.0836 59.502 16.0836V18.6096L61.1222 19.5752L61.8834 21.5974V29.291C61.8834 29.291 61.9196 30.9763 63.1834 30.9763C64.4473 30.9763 64.5763 29.291 64.5763 29.291V22.2973Z" fill="#FEFEFE" stroke="#041630" stroke-width="0.873723" stroke-linecap="round" stroke-linejoin="round"></path><path d="M59.8535 18.6097C59.8535 18.6097 61.796 18.2598 63.0933 18.2598C64.3906 18.2598 66.7744 18.6097 66.7744 18.6097" stroke="#041630" stroke-width="0.873723" stroke-linecap="round" stroke-linejoin="round"></path><path d="M64.373 41.6855L65.5458 48.0435L64.373 41.6855Z" fill="#FEFEFE"></path><path d="M64.373 41.6855L65.5458 48.0435" stroke="#041630" stroke-width="0.873723" stroke-linecap="round" stroke-linejoin="round"></path><path d="M64.4924 42.6228C61.4318 44.8636 61.4318 51.7435 65.0625 49.5305C68.6932 47.3175 68.6295 40.082 68.6295 40.082" stroke="#041630" stroke-width="0.873723" stroke-linecap="round" stroke-linejoin="round"></path><path d="M68.6297 49.5215C68.6297 49.5215 67.0016 53.2655 64.2168 53.2655" stroke="#041630" stroke-width="0.873723" stroke-linecap="round" stroke-linejoin="round"></path><path d="M68.3498 39.0262C68.3498 39.0262 71.5222 43.2794 71.9946 46.115" stroke="#041630" stroke-width="0.873723" stroke-linecap="round" stroke-linejoin="round"></path><path d="M70.2037 54.6367C70.2037 54.6367 68.4921 57.8525 65.9238 57.8525" stroke="#041630" stroke-width="0.873723" stroke-linecap="round" stroke-linejoin="round"></path><path d="M92.9983 75.2396C92.9983 75.2396 94.2527 76.1378 95.1173 75.2396C95.9819 74.3413 97.6636 70.693 97.6636 70.693L96.3008 68.3398L91.7031 75.2396H92.9983Z" fill="#FEFEFE" stroke="#041630" stroke-width="0.873723" stroke-linecap="round" stroke-linejoin="round"></path><path d="M84.6353 71.516L93.159 61.0149L99.8584 64.8411L91.2313 77.4391L84.6353 71.516Z" fill="white" stroke="#041630" stroke-width="0.970803" stroke-linecap="round" stroke-linejoin="round"></path><path d="M82.5452 50.8613C88.9542 60.3392 88.9542 89.5534 88.9542 89.5534C88.9542 89.5534 77.2483 92.1345 76.9092 93.3182C76.8598 93.4908 76.8828 93.8054 77.0332 93.8054C81.9207 93.8054 77.7299 96.8209 74.2283 98.7859C70.7266 100.751 64.3743 104.392 64.3743 104.392L66.4737 82.815C66.4737 82.815 63.2424 78.5318 66.4737 71.7999C57.7377 69.0769 76.7812 55.7421 82.5452 50.8613Z" fill="#FFA9B1" stroke="#041630" stroke-width="0.970803" stroke-linecap="round" stroke-linejoin="round"></path><path d="M60.0273 23.9352C60.0273 21.731 62.4968 20.7808 63.0038 23.1598C63.5108 25.5387 61.5616 27.2385 61.5616 27.2385C61.5616 27.2385 60.0273 26.1395 60.0273 23.9352Z" fill="#FEFEFE" stroke="#041630" stroke-width="0.873723" stroke-linecap="round" stroke-linejoin="round"></path><path d="M65.0388 23.5597C63.5192 22.6595 62.4749 19.7171 63.5032 20.5603C64.5314 21.4035 65.5461 22.3335 65.5461 22.3335" fill="#FEFEFE"></path><path d="M65.0388 23.5597C63.5192 22.6595 62.4749 19.7171 63.5032 20.5603C64.5314 21.4035 65.5461 22.3335 65.5461 22.3335" stroke="#041630" stroke-width="0.970803" stroke-linecap="round" stroke-linejoin="round"></path><path d="M66.248 72.3287C70.4936 64.0695 82.3264 56.0918 82.3264 56.0918" stroke="#041630" stroke-width="0.873723" stroke-linecap="round" stroke-linejoin="round"></path><path d="M66.5156 82.6878C66.5156 82.6878 67.8744 76.5767 73.8957 72.1895" stroke="#041630" stroke-width="0.873723" stroke-linecap="round" stroke-linejoin="round"></path><path d="M94.8042 72.9914C94.8042 72.9914 92.5416 71.3212 93.3966 70.0847C94.2516 68.8483 96.0991 70.2298 96.0991 70.2298C96.0991 70.2298 96.0673 70.6519 94.9879 67.6944C95.5106 66.3387 97.2079 69.9475 97.2079 69.9475" fill="#FEFEFE"></path><path d="M94.8042 72.9914C94.8042 72.9914 92.5416 71.3212 93.3966 70.0847C94.2516 68.8483 96.0991 70.2298 96.0991 70.2298C96.0991 70.2298 96.0673 70.6519 94.9879 67.6944C95.5106 66.3387 97.2079 69.9475 97.2079 69.9475" stroke="#041630" stroke-width="0.873723" stroke-linecap="round" stroke-linejoin="round"></path><path d="M71.5977 45.4316C71.5977 45.4316 72.6789 47.6498 72.1383 49.5217" stroke="#041630" stroke-width="0.873723" stroke-linecap="round" stroke-linejoin="round"></path><path d="M72.5352 47.4766C72.5352 47.4766 74.5211 48.1056 76.8703 50.8606C79.2196 53.6155 82.3258 51.3936 82.3258 51.3936" stroke="#041630" stroke-width="0.873723" stroke-linecap="round" stroke-linejoin="round"></path><path d="M77.4305 48.0434C74.721 48.0434 72.5352 42.0354 72.5352 42.0354C72.5352 42.0354 74.088 38.7324 77.0323 38.7324C79.9766 38.7324 81.074 41.6854 81.074 41.6854C81.074 41.6854 80.1399 48.0434 77.4305 48.0434Z" fill="#FCF0F1" stroke="#041630" stroke-width="0.970803" stroke-linecap="round" stroke-linejoin="round"></path><path d="M74.2866 45.7818V48.3929L72.5352 47.8269L73.4109 45.373" stroke="#041630" stroke-width="0.873723" stroke-linecap="round" stroke-linejoin="round"></path><path d="M79.5516 46.8828C79.5516 46.8828 79.4722 49.3358 80.724 50.8608" stroke="#041630" stroke-width="0.873723" stroke-linecap="round" stroke-linejoin="round"></path><path d="M69.5036 101.68L67.9297 121.181" stroke="#041630" stroke-width="0.873723" stroke-linecap="round" stroke-linejoin="round"></path><path d="M74.3937 98.7683L73.2059 121.354" stroke="#041630" stroke-width="0.873723" stroke-linecap="round" stroke-linejoin="round"></path><path d="M84.3809 91.6113L85.2574 121.243" stroke="#041630" stroke-width="0.873723" stroke-linecap="round" stroke-linejoin="round"></path><path d="M80.1355 92.6613L80.0132 120.941" stroke="#041630" stroke-width="0.873723" stroke-linecap="round" stroke-linejoin="round"></path><path d="M77.1127 93.012L79.6947 65.1914" stroke="#041630" stroke-width="0.873723" stroke-linecap="round" stroke-linejoin="round"></path><rect x="58.584" y="120.613" width="35.3265" height="5.04664" fill="#FFEDE8" stroke="#041630" stroke-width="0.96989" stroke-linecap="round" stroke-linejoin="round"></rect><rect x="51" y="125.66" width="49.9963" height="5.33942" fill="#FFEDE8" stroke="#041630" stroke-width="0.96989" stroke-linecap="round" stroke-linejoin="round"></rect></svg>